<svg width="60" height="50" viewBox="0 0 60 50" fill="none" xmlns="http://www.w3.org/2000/svg">
<rect width="60" height="49.2819" rx="8" fill="#171717"/>
<path d="M21.6351 12C22.789 12 23.8563 12.0903 24.8315 12.3576C25.8084 12.5363 26.6084 12.8939 27.3181 13.3399C28.0296 13.7866 28.5623 14.412 28.9163 15.2162C29.272 16.0198 29.4508 17.004 29.4508 18.0749C29.4508 19.3263 29.1836 20.3972 28.5623 21.2008C28.0296 22.0062 27.1411 22.7195 26.0757 23.2559C27.5854 23.7037 28.7393 24.5073 29.4508 25.5782C30.1623 26.6491 30.6048 27.9908 30.6048 29.5095C30.6048 30.761 30.3375 31.8319 29.8933 32.7258C29.4508 33.6196 28.7393 34.4232 27.9393 34.9596C27.07 35.5338 26.1095 35.9564 25.0987 36.2092C24.0333 36.4783 22.9678 36.6571 21.9024 36.6571H10V12H21.6351ZM20.9236 22.0044C21.9006 22.0044 22.7005 21.7371 23.3218 21.2911C23.943 20.8451 24.2102 20.0396 24.2102 19.0573C24.2102 18.5209 24.1199 17.9846 23.943 17.6288C23.766 17.2731 23.4987 17.0022 23.1448 16.7349C22.7829 16.5317 22.3937 16.3815 21.989 16.2889C21.5448 16.1986 21.1024 16.1986 20.5678 16.1986H15.4176V22.0062L20.9236 22.0044ZM21.1909 32.547C21.7236 32.547 22.2563 32.4567 22.7005 32.3682C23.1448 32.2779 23.589 32.1009 23.943 31.8319C24.3034 31.5688 24.6059 31.2344 24.8315 30.8495C25.0084 30.4034 25.1872 29.8671 25.1872 29.2423C25.1872 27.9908 24.8315 27.0969 24.1218 26.4721C23.4102 25.9358 22.4333 25.6685 21.2793 25.6685H15.4176V32.5488L21.1909 32.547ZM38.332 32.4567C39.0423 33.1718 40.1077 33.5294 41.5283 33.5294C42.5053 33.5294 43.3938 33.2621 44.1035 32.816C44.815 32.2791 45.2592 31.7428 45.4362 31.207H49.7883C49.0768 33.3506 48.0114 34.8693 46.592 35.8517C45.1689 36.7456 43.4823 37.2819 41.4399 37.2819C40.1333 37.2839 38.8379 37.0413 37.6205 36.5668C36.5246 36.1581 35.5477 35.4828 34.7781 34.602C33.9516 33.781 33.3416 32.7678 33.0029 31.6531C32.5587 30.4919 32.3799 29.2423 32.3799 27.812C32.3799 26.4721 32.5587 25.2224 33.0029 24.0595C33.4291 22.9391 34.0618 21.9088 34.8684 21.022C35.6666 20.2184 36.6435 19.5051 37.709 19.0573C38.895 18.5811 40.1618 18.3383 41.4399 18.3421C42.9496 18.3421 44.2823 18.6112 45.4362 19.236C46.592 19.8609 47.4786 20.576 48.1883 21.6487C48.8998 22.631 49.4344 23.7922 49.7883 25.0437C49.9653 26.2933 50.0538 27.5448 49.9653 28.9732H37.0878C37.0878 30.4034 37.6205 31.7434 38.332 32.4585M43.9265 23.0789C43.3053 22.4541 42.3283 22.0965 41.1726 22.0965C40.4949 22.0864 39.8248 22.2393 39.2187 22.5426C38.6859 22.8116 38.332 23.1692 37.9762 23.5267C37.6473 23.8707 37.4306 24.3065 37.355 24.7764C37.2647 25.2242 37.1762 25.58 37.1762 25.9376H45.1689C44.992 24.5976 44.5477 23.7055 43.9265 23.0789ZM36.1108 13.6975H46.0574V16.1101H36.1126L36.1108 13.6975Z" fill="white"/>
</svg>
