<svg width="61" height="50" viewBox="0 0 61 50" fill="none" xmlns="http://www.w3.org/2000/svg">
<rect x="0.0751953" y="0.709045" width="60" height="49" rx="8" fill="#0D21A1"/>
<path fill-rule="evenodd" clip-rule="evenodd" d="M26.8614 21.4203H31.5039V23.7328C32.1727 22.4028 33.8877 21.2078 36.4639 21.2078C41.4027 21.2078 42.5752 23.8553 42.5752 28.7128V37.709H37.5752V29.819C37.5752 27.0528 36.9064 25.4928 35.2039 25.4928C32.8427 25.4928 31.8614 27.174 31.8614 29.8178V37.709H26.8614V21.4203ZM18.2877 37.4965H23.2877V21.2078H18.2877V37.4965ZM24.0039 15.8965C24.0041 16.3156 23.921 16.7306 23.7594 17.1173C23.5978 17.504 23.361 17.8547 23.0627 18.149C22.7635 18.4467 22.4086 18.6825 22.0182 18.8429C21.6279 19.0033 21.2097 19.0853 20.7877 19.084C19.9372 19.0821 19.1213 18.7469 18.5152 18.1503C18.2181 17.8549 17.9821 17.5037 17.8208 17.117C17.6595 16.7303 17.5761 16.3156 17.5752 15.8965C17.5752 15.0503 17.9127 14.2403 18.5164 13.6428C19.1211 13.0439 19.9379 12.7083 20.7889 12.709C21.6414 12.709 22.4589 13.0453 23.0627 13.6428C23.6664 14.2403 24.0039 15.0503 24.0039 15.8965Z" fill="white"/>
</svg>
