<?xml version="1.0" encoding="UTF-8"?>
<svg id="Layer_2" xmlns="http://www.w3.org/2000/svg" viewBox="0 0 471.17 99.1">
  <defs>
    <style>
      .cls-1 {
        fill: #231f20;
      }
    </style>
  </defs>
  <g id="Layer_1-2" data-name="Layer_1">
    <g>
      <path class="cls-1" d="M0,70.17C0,52.01,0,33.86,0,15.7c7.12,2.1,10.69,3.03,17.81,4.67,3.49.8,6.71,2.12,9.68,3.98,2.97,1.86,5.56,4.16,7.77,6.92,2.21,2.77,3.93,5.86,5.16,9.29,1.23,3.43,1.84,7.12,1.84,11.06v.86c0,3.94-.61,7.48-1.84,10.61-1.23,3.13-2.96,5.71-5.19,7.71-2.24,2-4.84,3.38-7.81,4.12-2.97.74-6.17.72-9.61-.07C10.69,73.2,7.12,72.27,0,70.17ZM8.62,67.67c-1.44-2-2.16-3-3.6-5.02,4.83,1.34,7.25,1.95,12.09,3.07,3.16.74,5.97.59,8.45-.41,2.47-1,4.41-2.76,5.8-5.25,1.39-2.49,2.09-5.51,2.09-9.04v-.86c0-3.58-.7-6.8-2.09-9.68-1.39-2.87-3.31-5.29-5.76-7.27-2.45-1.98-5.28-3.32-8.48-4.07-4.83-1.13-7.25-1.74-12.09-3.07,1.44-1.22,2.16-1.83,3.6-3.07,0,14.89,0,29.77,0,44.66Z"/>
      <path class="cls-1" d="M61.42,82.59c-3.44-.32-6.47-1.48-9.08-3.42-2.61-1.95-4.65-4.51-6.11-7.64-1.46-3.13-2.19-6.65-2.19-10.54v-.78c0-3.63.68-6.79,2.05-9.47,1.37-2.69,3.29-4.71,5.76-6.1,2.47-1.38,5.34-1.91,8.59-1.59,3.49.34,6.44,1.5,8.87,3.52,2.43,2.02,4.21,4.73,5.34,8.17,1.13,3.44,1.44,7.42.92,11.96-10.26-.58-15.39-1.03-25.66-2.34,0-2.55,0-3.83,0-6.38,8.54,1.09,12.81,1.49,21.35,2.07-1.44,1.21-2.16,1.81-3.61,3.01.33-2.57.22-4.77-.32-6.6-.54-1.83-1.4-3.28-2.58-4.33-1.18-1.06-2.59-1.67-4.24-1.82-1.84-.18-3.38.18-4.63,1.08-1.25.9-2.19,2.19-2.83,3.88-.64,1.69-.95,3.7-.95,6.03v1.56c0,2.13.38,4.07,1.13,5.81.75,1.75,1.86,3.17,3.32,4.27,1.46,1.09,3.23,1.74,5.3,1.93,1.74.16,3.22.02,4.42-.43,1.2-.45,2.3-1.13,3.29-2.04,1.84,2.25,2.76,3.37,4.59,5.6-1.37,1.78-3.15,3.07-5.34,3.84-2.19.77-4.65,1.04-7.39.78Z"/>
      <path class="cls-1" d="M89.69,84.13c-2.73-.06-5.24-.58-7.53-1.56-2.29-.97-4.18-2.16-5.69-3.54,1.41-2.38,2.12-3.58,3.53-5.97,1.41,1.15,2.94,2.11,4.59,2.87,1.65.76,3.35,1.15,5.09,1.19,1.7.04,3.05-.33,4.06-1.1,1.01-.76,1.52-1.77,1.52-3.02,0-1.24-.41-2.17-1.24-2.78s-1.9-1.13-3.22-1.57c-1.32-.44-2.72-.89-4.21-1.35-1.48-.46-2.89-1.1-4.21-1.93-1.32-.83-2.4-1.97-3.25-3.41s-1.27-3.36-1.27-5.74c0-3.53,1.2-6.33,3.61-8.43,2.4-2.1,5.63-3.09,9.68-3.02,2.26.04,4.41.4,6.43,1.09,2.03.68,3.84,1.61,5.44,2.79-1.44,2.41-2.16,3.61-3.61,6-1.23-.93-2.54-1.67-3.96-2.2-1.41-.53-2.87-.81-4.38-.84-1.65-.03-2.97.34-3.96,1.11-.99.78-1.48,1.78-1.48,3.03,0,1.14.44,2.05,1.31,2.72.87.67,1.98,1.22,3.32,1.64,1.34.42,2.77.87,4.28,1.35,1.51.48,2.93,1.13,4.28,1.93,1.34.81,2.45,1.9,3.32,3.3.87,1.4,1.31,3.29,1.31,5.67,0,2.33-.6,4.39-1.8,6.16-1.2,1.77-2.83,3.16-4.88,4.16-2.05,1-4.42,1.48-7.1,1.42Z"/>
      <path class="cls-1" d="M110.12,83.42c0-11.44,0-22.88,0-34.31,1.44,1.59,2.16,2.38,3.6,3.95-3.96.12-5.94.15-9.89.19,0-3.05,0-4.57,0-7.62,5.77-.05,8.65-.12,14.42-.34,0,12.63,0,25.26,0,37.89-3.25.12-4.88.17-8.13.24ZM109.69,37.99c0-4.14,0-6.21,0-10.35,3.62-.08,5.43-.13,9.05-.27,0,4.14,0,6.21,0,10.35-3.62.14-5.43.19-9.05.27Z"/>
      <path class="cls-1" d="M121.42,98.61c0-2.96,0-4.44,0-7.39,8.34-.36,12.51-.63,20.85-1.28,1.18-.09,2.05-.46,2.62-1.1.56-.64.85-1.51.85-2.6,0-1.04-.28-1.81-.85-2.3-.57-.5-1.44-.7-2.62-.61-4.78.37-7.17.54-11.94.82-1.79.11-3.19-.31-4.21-1.24-1.01-.93-1.59-2.16-1.73-3.69-.14-1.52.14-3.11.85-4.75,1.39-3.12,2.08-4.68,3.46-7.81,2.74.59,4.11.88,6.86,1.44-1.22,2.79-1.82,4.18-3.04,6.97-.14.27-.22.56-.25.87-.02.31.06.57.25.76.19.19.49.28.92.25,4.01-.26,6.02-.4,10.04-.72,2.92-.23,5.3.39,7.14,1.88,1.84,1.5,2.76,4.03,2.76,7.61,0,2.02-.44,3.88-1.31,5.57-.87,1.69-2.07,3.07-3.6,4.14-1.53,1.07-3.31,1.68-5.34,1.84-8.68.69-13.02.97-21.7,1.35ZM137.19,71.8c-3.02.21-5.67-.22-7.95-1.28-2.28-1.06-4.08-2.62-5.37-4.66-1.3-2.04-1.94-4.44-1.94-7.19v-.7c0-2.65.65-5.02,1.94-7.13,1.3-2.11,3.09-3.81,5.37-5.11,2.29-1.3,4.94-2.05,7.95-2.26,2.97-.21,5.6.16,7.88,1.11,2.28.95,4.08,2.39,5.37,4.32,1.3,1.93,1.94,4.22,1.94,6.86,0,.31,0,.47,0,.78,0,2.75-.65,5.23-1.94,7.45-1.3,2.22-3.09,4.02-5.37,5.4-2.29,1.38-4.91,2.18-7.88,2.39ZM137.19,64.95c2.12-.15,3.85-.94,5.19-2.37,1.34-1.43,2.01-3.18,2.01-5.26v-.47c0-2.02-.67-3.59-2.01-4.7-1.34-1.11-3.07-1.59-5.19-1.44-2.17.15-3.92.89-5.27,2.22-1.34,1.33-2.01,3-2.01,5.02v.39c0,2.08.67,3.74,2.01,4.98,1.34,1.24,3.1,1.79,5.27,1.64ZM135.49,49.27c2.21-5.38,3.31-8.07,5.51-13.47,3.28-.25,4.92-.38,8.2-.67-2.6,5.46-3.9,8.18-6.5,13.61-2.88.23-4.33.33-7.21.53Z"/>
      <path class="cls-1" d="M156.27,80.54c0-12.63,0-25.26,0-37.89,3.14-.31,4.71-.47,7.85-.8,0,4.17,0,6.26,0,10.43-.88.09-1.31.14-2.19.23.52-2.34,1.25-4.28,2.19-5.83.94-1.55,2.02-2.8,3.22-3.73,1.2-.94,2.44-1.65,3.71-2.13,1.27-.48,2.43-.79,3.46-.91,3.86-.45,6.96.55,9.29,3.03,2.33,2.48,3.5,6.31,3.5,11.5,0,9.03,0,13.54,0,22.56-3.25.42-4.88.62-8.13,1.02,0-8.43,0-12.65,0-21.09,0-3.32-.64-5.64-1.91-6.97s-2.94-1.87-5.02-1.63c-1.46.17-2.79.68-3.99,1.54-1.2.86-2.14,2.04-2.83,3.54-.68,1.5-1.02,3.29-1.02,5.36,0,8.37,0,12.56,0,20.93-3.25.35-4.88.51-8.13.83Z"/>
      <path class="cls-1" d="M199.95,75.3c-4.65-17.54-9.29-35.08-13.92-52.62,3.53-.45,5.3-.68,8.83-1.16,3.72,15.08,7.44,30.15,11.17,45.23-1.36.19-2.04.29-3.39.47,4.34-16.2,8.67-32.4,13.01-48.61,3.85-.55,5.77-.84,9.61-1.4,4.26,14.96,8.53,29.92,12.79,44.88-1.33.2-1.99.29-3.32.49,3.75-16.14,7.49-32.28,11.24-48.42,3.51-.51,5.26-.77,8.76-1.28-4.64,18.83-9.28,37.67-13.92,56.5-3.56.52-5.34.79-8.91,1.31-4.24-15.15-8.48-30.3-12.72-45.44.99-.14,1.48-.22,2.47-.36-4.24,16.38-8.48,32.76-12.72,49.14-3.59.51-5.39.76-8.98,1.25Z"/>
      <path class="cls-1" d="M259.1,66.74v-34.31c1.44,1.41,2.16,2.12,3.6,3.53-3.96.56-5.94.85-9.89,1.42v-7.62c5.77-.84,8.65-1.25,14.42-2.06v37.89c-3.25.45-4.88.68-8.13,1.15ZM258.68,21.36v-10.35c3.62-.52,5.43-.77,9.05-1.28v10.35c-3.62.5-5.43.76-9.05,1.28Z"/>
      <path class="cls-1" d="M269.78,34.97v-7.62c8.79-1.21,13.19-1.8,21.98-2.88v7.62c-8.79,1.08-13.19,1.66-21.98,2.88ZM286.18,63.05c-1.23.16-2.46.15-3.71-.03-1.25-.18-2.39-.61-3.43-1.3-1.04-.69-1.87-1.72-2.51-3.09-.64-1.37-.95-3.14-.95-5.32,0-12.01,0-24.02,0-36.02,3.25-.44,4.88-.65,8.13-1.07,0,12.24,0,24.48,0,36.73,0,.78.25,1.41.74,1.89s1.12.67,1.87.58c2.18-.28,3.27-.41,5.44-.68v7.63c-2.23.27-3.35.41-5.58.7Z"/>
      <path class="cls-1" d="M295.36,61.92c0-18.93,0-37.87,0-56.8,3.14-.37,4.71-.55,7.85-.9,0,9.78,0,19.56,0,29.33-.88.1-1.31.15-2.19.25.52-2.34,1.25-4.29,2.19-5.85.94-1.56,2.02-2.8,3.22-3.74,1.2-.93,2.44-1.63,3.71-2.1,1.27-.47,2.43-.75,3.46-.86,3.86-.38,6.96.73,9.29,3.3,2.33,2.57,3.5,6.46,3.5,11.65,0,9.03,0,13.54,0,22.56-3.25.27-4.88.41-8.13.71,0-8.43,0-12.65,0-21.09,0-3.32-.64-5.66-1.91-7.02s-2.94-1.93-5.02-1.72c-1.46.15-2.79.65-3.99,1.51-1.2.85-2.14,2.03-2.83,3.53-.68,1.5-1.02,3.29-1.02,5.36,0,8.37,0,12.56,0,20.93-3.25.36-4.88.55-8.13.93Z"/>
      <path class="cls-1" d="M331.69,58.36c0-18.16,0-36.31,0-54.47,7.12-.53,10.69-.74,17.81-1.06,3.49-.15,6.71.37,9.68,1.57,2.97,1.19,5.56,2.98,7.77,5.35,2.21,2.36,3.93,5.18,5.16,8.42,1.23,3.24,1.84,6.84,1.84,10.78v.86c0,3.94-.61,7.57-1.84,10.89-1.23,3.32-2.96,6.17-5.19,8.58-2.24,2.41-4.84,4.3-7.81,5.7-2.97,1.4-6.17,2.17-9.61,2.32-7.12.31-10.69.53-17.81,1.06ZM340.31,52.88c-1.44-1.53-2.16-2.3-3.6-3.82,4.83-.32,7.25-.46,12.09-.67,3.16-.14,5.97-1,8.45-2.57,2.47-1.58,4.41-3.74,5.8-6.52,1.39-2.77,2.09-5.92,2.09-9.45v-.86c0-3.58-.7-6.67-2.09-9.26-1.39-2.59-3.31-4.6-5.76-6.01-2.45-1.41-5.28-2.05-8.48-1.9-4.83.22-7.25.36-12.09.67,1.44-1.71,2.16-2.57,3.6-4.27,0,14.89,0,29.77,0,44.66Z"/>
      <path class="cls-1" d="M388.09,57.88c-3.91-.15-7.04-1.25-9.4-3.36-2.36-2.11-3.53-4.81-3.53-8.13,0-2.23.54-4.22,1.63-5.98,1.08-1.75,2.67-3.13,4.77-4.12,2.1-.99,4.65-1.44,7.67-1.31,4.1.17,7.2,1.35,9.29,3.48,2.1,2.13,3.14,4.84,3.14,8.11-.85-.06-1.27-.09-2.12-.15,0,3.84-.94,6.74-2.83,8.73-1.88,1.99-4.76,2.88-8.62,2.73ZM397.92,57.6v-12.76c-.4-1.33-.59-2-.99-3.33v-8.01c0-2.39-.6-4.15-1.8-5.28-1.2-1.13-2.86-1.75-4.98-1.84-1.65-.07-3.42.23-5.3.9-1.89.67-3.53,1.67-4.95,2.99-1.47-2.45-2.21-3.68-3.68-6.12,1.6-1.8,3.69-3.22,6.26-4.25,2.57-1.03,5.29-1.48,8.16-1.35,2.83.12,5.31.81,7.46,2.03,2.14,1.22,3.83,2.94,5.05,5.14,1.22,2.19,1.84,4.85,1.84,7.97v12.22c0,2.07.01,4.11.04,6.11.02,2,.08,4.04.18,6.12-2.91-.24-4.37-.34-7.28-.52ZM390.14,51.35c2.07.09,3.72-.28,4.95-1.12,1.22-.84,1.84-2.03,1.84-3.59s-.61-2.75-1.84-3.72c-1.22-.98-2.87-1.52-4.95-1.6-2.03-.09-3.66.31-4.91,1.18-1.25.87-1.87,2.06-1.87,3.56s.62,2.8,1.87,3.75c1.25.95,2.89,1.46,4.91,1.54Z"/>
      <path class="cls-1" d="M418.84,59.5c-4.4-13.09-8.83-26.17-13.29-39.24,3.39.28,5.09.44,8.48.8,3.57,11.09,7.13,22.18,10.67,33.28-1.27-.17-1.91-.26-3.18-.42,3.52-10.15,7.05-20.31,10.6-30.45,3.39.54,5.09.84,8.48,1.47-4.41,11.89-8.79,23.79-13.15,35.7-3.45-.5-5.17-.73-8.62-1.15Z"/>
      <path class="cls-1" d="M456.79,67.09c-3.44-.83-6.47-2.32-9.08-4.51-2.61-2.19-4.65-4.87-6.11-8.08-1.46-3.21-2.19-6.75-2.19-10.64v-.78c0-3.63.68-6.76,2.05-9.38s3.29-4.53,5.76-5.7c2.47-1.17,5.34-1.38,8.59-.6,3.49.83,6.44,2.52,8.87,5.02,2.43,2.5,4.21,5.62,5.34,9.32,1.13,3.7,1.44,7.76.92,12.17-10.26-3.02-15.39-4.27-25.66-6.35v-6.38c8.54,1.73,12.81,2.75,21.35,5.12-1.44.91-2.16,1.36-3.61,2.29.33-2.51.22-4.73-.32-6.66-.54-1.93-1.4-3.53-2.58-4.79-1.18-1.26-2.59-2.09-4.24-2.49-1.84-.44-3.38-.27-4.63.49-1.25.76-2.19,1.96-2.83,3.58-.64,1.63-.95,3.61-.95,5.94v1.56c0,2.13.38,4.1,1.13,5.92.75,1.82,1.86,3.36,3.32,4.62,1.46,1.26,3.23,2.14,5.3,2.64,1.74.43,3.22.53,4.42.3,1.2-.23,2.3-.7,3.29-1.42,1.84,2.62,2.76,3.93,4.59,6.58-1.37,1.47-3.15,2.37-5.34,2.71-2.19.34-4.65.17-7.39-.49Z"/>
    </g>
  </g>
</svg>