<svg width="60" height="50" viewBox="0 0 60 50" fill="none" xmlns="http://www.w3.org/2000/svg">
<rect width="60" height="49.28" rx="8" fill="#818283"/>
<path d="M17.36 37.28C16.491 37.28 15.7473 36.9708 15.129 36.3525C14.5107 35.7342 14.201 34.9901 14.2 34.12V15.16C14.2 14.291 14.5096 13.5473 15.129 12.929C15.7484 12.3107 16.492 12.0011 17.36 12H42.6399C43.5089 12 44.2531 12.3097 44.8725 12.929C45.4918 13.5484 45.801 14.2921 45.7999 15.16V34.12C45.7999 34.989 45.4908 35.7332 44.8725 36.3525C44.2542 36.9719 43.51 37.2811 42.6399 37.28H17.36ZM29.9999 26.22L17.36 18.32V34.12H42.6399V18.32L29.9999 26.22ZM29.9999 23.06L42.6399 15.16H17.36L29.9999 23.06ZM17.36 18.32V15.16V34.12V18.32Z" fill="#171717"/>
</svg>
