<svg width="808" height="456" viewBox="0 0 808 456" fill="none" xmlns="http://www.w3.org/2000/svg">
<path d="M147.581 149.909V179H143.192V149.909H147.581ZM157.283 149.909V152.636C157.283 153.441 157.132 154.289 156.828 155.179C156.535 156.06 156.118 156.907 155.578 157.722C155.039 158.536 154.404 159.237 153.675 159.824L151.573 158.318C152.132 157.504 152.614 156.637 153.022 155.719C153.438 154.8 153.647 153.787 153.647 152.679V149.909H157.283ZM160.742 179V157.182H164.819V160.733H165.088C165.543 159.53 166.286 158.593 167.319 157.92C168.351 157.239 169.587 156.898 171.026 156.898C172.484 156.898 173.706 157.239 174.691 157.92C175.685 158.602 176.419 159.54 176.892 160.733H177.12C177.641 159.568 178.469 158.64 179.605 157.949C180.742 157.248 182.096 156.898 183.668 156.898C185.647 156.898 187.262 157.518 188.512 158.759C189.771 159.999 190.401 161.869 190.401 164.369V179H186.154V164.767C186.154 163.29 185.751 162.22 184.946 161.557C184.141 160.894 183.18 160.562 182.063 160.562C180.68 160.562 179.605 160.989 178.838 161.841C178.071 162.684 177.688 163.768 177.688 165.094V179H173.455V164.497C173.455 163.313 173.086 162.362 172.347 161.642C171.608 160.922 170.647 160.562 169.463 160.562C168.658 160.562 167.915 160.776 167.233 161.202C166.561 161.618 166.016 162.201 165.6 162.949C165.193 163.697 164.989 164.563 164.989 165.548V179H160.742ZM213.029 179.483C211.646 179.483 210.396 179.227 209.279 178.716C208.161 178.195 207.276 177.442 206.623 176.457C205.979 175.473 205.657 174.265 205.657 172.835C205.657 171.604 205.893 170.591 206.367 169.795C206.84 169 207.48 168.37 208.284 167.906C209.089 167.442 209.989 167.092 210.983 166.855C211.978 166.618 212.991 166.438 214.023 166.315C215.33 166.164 216.391 166.041 217.205 165.946C218.019 165.842 218.611 165.676 218.98 165.449C219.35 165.222 219.534 164.852 219.534 164.341V164.241C219.534 163.001 219.184 162.04 218.483 161.358C217.792 160.676 216.76 160.335 215.387 160.335C213.957 160.335 212.83 160.652 212.006 161.287C211.192 161.912 210.628 162.608 210.316 163.375L206.324 162.466C206.798 161.14 207.489 160.07 208.398 159.256C209.317 158.432 210.373 157.835 211.566 157.466C212.759 157.087 214.014 156.898 215.33 156.898C216.201 156.898 217.124 157.002 218.1 157.21C219.085 157.409 220.003 157.778 220.855 158.318C221.717 158.858 222.423 159.63 222.972 160.634C223.521 161.628 223.796 162.92 223.796 164.511V179H219.648V176.017H219.478C219.203 176.566 218.791 177.106 218.242 177.636C217.693 178.167 216.987 178.607 216.125 178.957C215.264 179.308 214.231 179.483 213.029 179.483ZM213.952 176.074C215.126 176.074 216.13 175.842 216.963 175.378C217.806 174.914 218.445 174.308 218.881 173.56C219.326 172.802 219.549 171.992 219.549 171.131V168.318C219.397 168.47 219.104 168.612 218.668 168.744C218.242 168.867 217.754 168.976 217.205 169.071C216.656 169.156 216.121 169.237 215.6 169.312C215.079 169.379 214.643 169.436 214.293 169.483C213.469 169.587 212.716 169.762 212.034 170.009C211.362 170.255 210.822 170.61 210.415 171.074C210.017 171.528 209.819 172.134 209.819 172.892C209.819 173.943 210.207 174.739 210.983 175.278C211.76 175.809 212.749 176.074 213.952 176.074ZM240.039 179V157.182H244.144V160.648H244.371C244.769 159.473 245.47 158.55 246.473 157.878C247.487 157.196 248.632 156.855 249.911 156.855C250.176 156.855 250.489 156.865 250.848 156.884C251.218 156.902 251.507 156.926 251.715 156.955V161.017C251.544 160.97 251.241 160.918 250.806 160.861C250.37 160.795 249.935 160.761 249.499 160.761C248.495 160.761 247.6 160.974 246.814 161.401C246.038 161.817 245.422 162.4 244.968 163.148C244.513 163.886 244.286 164.729 244.286 165.676V179H240.039ZM264.012 179.44C261.863 179.44 260.011 178.981 258.458 178.062C256.915 177.134 255.722 175.832 254.879 174.156C254.046 172.471 253.629 170.496 253.629 168.233C253.629 165.998 254.046 164.028 254.879 162.324C255.722 160.619 256.896 159.289 258.402 158.332C259.917 157.376 261.688 156.898 263.714 156.898C264.945 156.898 266.138 157.101 267.294 157.509C268.449 157.916 269.486 158.555 270.404 159.426C271.323 160.297 272.047 161.429 272.578 162.821C273.108 164.204 273.373 165.884 273.373 167.864V169.369H256.029V166.188H269.211C269.211 165.07 268.984 164.08 268.529 163.219C268.075 162.348 267.436 161.661 266.612 161.159C265.797 160.657 264.841 160.406 263.743 160.406C262.549 160.406 261.508 160.7 260.618 161.287C259.737 161.865 259.055 162.622 258.572 163.56C258.099 164.488 257.862 165.496 257.862 166.585V169.071C257.862 170.529 258.118 171.77 258.629 172.793C259.15 173.815 259.874 174.597 260.802 175.136C261.73 175.667 262.815 175.932 264.055 175.932C264.86 175.932 265.594 175.818 266.257 175.591C266.92 175.354 267.493 175.004 267.975 174.54C268.458 174.076 268.828 173.503 269.083 172.821L273.103 173.545C272.781 174.729 272.204 175.766 271.37 176.656C270.547 177.537 269.51 178.223 268.26 178.716C267.019 179.199 265.603 179.44 264.012 179.44ZM288.27 157.182V160.591H276.353V157.182H288.27ZM279.549 151.955H283.796V172.594C283.796 173.418 283.919 174.038 284.165 174.455C284.411 174.862 284.729 175.141 285.117 175.293C285.515 175.435 285.945 175.506 286.409 175.506C286.75 175.506 287.049 175.482 287.304 175.435C287.56 175.387 287.759 175.349 287.901 175.321L288.668 178.83C288.422 178.924 288.071 179.019 287.617 179.114C287.162 179.218 286.594 179.275 285.912 179.284C284.795 179.303 283.753 179.104 282.787 178.688C281.821 178.271 281.04 177.627 280.444 176.756C279.847 175.884 279.549 174.791 279.549 173.474V151.955ZM292.968 179V157.182H297.216V179H292.968ZM295.113 153.815C294.375 153.815 293.74 153.569 293.21 153.077C292.689 152.575 292.429 151.978 292.429 151.287C292.429 150.586 292.689 149.99 293.21 149.497C293.74 148.995 294.375 148.744 295.113 148.744C295.852 148.744 296.482 148.995 297.002 149.497C297.533 149.99 297.798 150.586 297.798 151.287C297.798 151.978 297.533 152.575 297.002 153.077C296.482 153.569 295.852 153.815 295.113 153.815ZM302.929 179V157.182H307.034V160.648H307.262C307.659 159.473 308.36 158.55 309.364 157.878C310.377 157.196 311.523 156.855 312.801 156.855C313.067 156.855 313.379 156.865 313.739 156.884C314.108 156.902 314.397 156.926 314.605 156.955V161.017C314.435 160.97 314.132 160.918 313.696 160.861C313.261 160.795 312.825 160.761 312.39 160.761C311.386 160.761 310.491 160.974 309.705 161.401C308.928 161.817 308.313 162.4 307.858 163.148C307.404 163.886 307.176 164.729 307.176 165.676V179H302.929ZM326.903 179.44C324.753 179.44 322.902 178.981 321.349 178.062C319.806 177.134 318.612 175.832 317.77 174.156C316.936 172.471 316.52 170.496 316.52 168.233C316.52 165.998 316.936 164.028 317.77 162.324C318.612 160.619 319.787 159.289 321.292 158.332C322.807 157.376 324.578 156.898 326.605 156.898C327.836 156.898 329.029 157.101 330.184 157.509C331.34 157.916 332.377 158.555 333.295 159.426C334.214 160.297 334.938 161.429 335.468 162.821C335.999 164.204 336.264 165.884 336.264 167.864V169.369H318.92V166.188H332.102C332.102 165.07 331.875 164.08 331.42 163.219C330.966 162.348 330.326 161.661 329.502 161.159C328.688 160.657 327.732 160.406 326.633 160.406C325.44 160.406 324.398 160.7 323.508 161.287C322.627 161.865 321.946 162.622 321.463 163.56C320.989 164.488 320.752 165.496 320.752 166.585V169.071C320.752 170.529 321.008 171.77 321.52 172.793C322.04 173.815 322.765 174.597 323.693 175.136C324.621 175.667 325.705 175.932 326.946 175.932C327.751 175.932 328.484 175.818 329.147 175.591C329.81 175.354 330.383 175.004 330.866 174.54C331.349 174.076 331.718 173.503 331.974 172.821L335.994 173.545C335.672 174.729 335.094 175.766 334.261 176.656C333.437 177.537 332.4 178.223 331.15 178.716C329.91 179.199 328.494 179.44 326.903 179.44ZM349.144 179.426C347.382 179.426 345.81 178.976 344.428 178.077C343.055 177.168 341.975 175.875 341.189 174.199C340.413 172.513 340.025 170.491 340.025 168.134C340.025 165.776 340.417 163.759 341.203 162.082C341.999 160.406 343.088 159.123 344.471 158.233C345.853 157.343 347.42 156.898 349.172 156.898C350.526 156.898 351.615 157.125 352.439 157.58C353.273 158.025 353.917 158.545 354.371 159.142C354.835 159.739 355.195 160.264 355.451 160.719H355.706V149.909H359.953V179H355.806V175.605H355.451C355.195 176.069 354.826 176.599 354.343 177.196C353.869 177.793 353.216 178.313 352.382 178.759C351.549 179.204 350.47 179.426 349.144 179.426ZM350.081 175.804C351.303 175.804 352.335 175.482 353.178 174.838C354.03 174.185 354.674 173.28 355.11 172.125C355.555 170.97 355.777 169.625 355.777 168.091C355.777 166.576 355.56 165.25 355.124 164.114C354.688 162.977 354.049 162.092 353.206 161.457C352.364 160.823 351.322 160.506 350.081 160.506C348.803 160.506 347.738 160.837 346.885 161.5C346.033 162.163 345.389 163.067 344.953 164.213C344.527 165.359 344.314 166.652 344.314 168.091C344.314 169.549 344.532 170.861 344.968 172.026C345.403 173.19 346.047 174.114 346.9 174.795C347.761 175.468 348.822 175.804 350.081 175.804ZM384.769 179.426C383.007 179.426 381.435 178.976 380.053 178.077C378.68 177.168 377.6 175.875 376.814 174.199C376.038 172.513 375.65 170.491 375.65 168.134C375.65 165.776 376.042 163.759 376.828 162.082C377.624 160.406 378.713 159.123 380.096 158.233C381.478 157.343 383.045 156.898 384.797 156.898C386.151 156.898 387.24 157.125 388.064 157.58C388.898 158.025 389.542 158.545 389.996 159.142C390.46 159.739 390.82 160.264 391.076 160.719H391.331V149.909H395.578V179H391.431V175.605H391.076C390.82 176.069 390.451 176.599 389.968 177.196C389.494 177.793 388.841 178.313 388.007 178.759C387.174 179.204 386.095 179.426 384.769 179.426ZM385.706 175.804C386.928 175.804 387.96 175.482 388.803 174.838C389.655 174.185 390.299 173.28 390.735 172.125C391.18 170.97 391.402 169.625 391.402 168.091C391.402 166.576 391.185 165.25 390.749 164.114C390.313 162.977 389.674 162.092 388.831 161.457C387.989 160.823 386.947 160.506 385.706 160.506C384.428 160.506 383.363 160.837 382.51 161.5C381.658 162.163 381.014 163.067 380.578 164.213C380.152 165.359 379.939 166.652 379.939 168.091C379.939 169.549 380.157 170.861 380.593 172.026C381.028 173.19 381.672 174.114 382.525 174.795C383.386 175.468 384.447 175.804 385.706 175.804ZM411.044 179.44C408.894 179.44 407.043 178.981 405.49 178.062C403.946 177.134 402.753 175.832 401.91 174.156C401.077 172.471 400.66 170.496 400.66 168.233C400.66 165.998 401.077 164.028 401.91 162.324C402.753 160.619 403.927 159.289 405.433 158.332C406.948 157.376 408.719 156.898 410.745 156.898C411.976 156.898 413.17 157.101 414.325 157.509C415.48 157.916 416.517 158.555 417.436 159.426C418.354 160.297 419.079 161.429 419.609 162.821C420.139 164.204 420.404 165.884 420.404 167.864V169.369H403.061V166.188H416.243C416.243 165.07 416.015 164.08 415.561 163.219C415.106 162.348 414.467 161.661 413.643 161.159C412.829 160.657 411.872 160.406 410.774 160.406C409.581 160.406 408.539 160.7 407.649 161.287C406.768 161.865 406.086 162.622 405.603 163.56C405.13 164.488 404.893 165.496 404.893 166.585V169.071C404.893 170.529 405.149 171.77 405.66 172.793C406.181 173.815 406.905 174.597 407.833 175.136C408.761 175.667 409.846 175.932 411.086 175.932C411.891 175.932 412.625 175.818 413.288 175.591C413.951 175.354 414.524 175.004 415.007 174.54C415.49 174.076 415.859 173.503 416.115 172.821L420.135 173.545C419.813 174.729 419.235 175.766 418.402 176.656C417.578 177.537 416.541 178.223 415.291 178.716C414.05 179.199 412.635 179.44 411.044 179.44ZM443.157 157.182L435.245 179H430.699L422.773 157.182H427.333L432.858 173.972H433.086L438.597 157.182H443.157ZM455.809 179.44C453.66 179.44 451.808 178.981 450.255 178.062C448.712 177.134 447.519 175.832 446.676 174.156C445.842 172.471 445.426 170.496 445.426 168.233C445.426 165.998 445.842 164.028 446.676 162.324C447.519 160.619 448.693 159.289 450.199 158.332C451.714 157.376 453.484 156.898 455.511 156.898C456.742 156.898 457.935 157.101 459.091 157.509C460.246 157.916 461.283 158.555 462.201 159.426C463.12 160.297 463.844 161.429 464.375 162.821C464.905 164.204 465.17 165.884 465.17 167.864V169.369H447.826V166.188H461.008C461.008 165.07 460.781 164.08 460.326 163.219C459.872 162.348 459.233 161.661 458.409 161.159C457.594 160.657 456.638 160.406 455.539 160.406C454.346 160.406 453.305 160.7 452.414 161.287C451.534 161.865 450.852 162.622 450.369 163.56C449.895 164.488 449.659 165.496 449.659 166.585V169.071C449.659 170.529 449.914 171.77 450.426 172.793C450.947 173.815 451.671 174.597 452.599 175.136C453.527 175.667 454.611 175.932 455.852 175.932C456.657 175.932 457.391 175.818 458.054 175.591C458.717 175.354 459.289 175.004 459.772 174.54C460.255 174.076 460.625 173.503 460.88 172.821L464.9 173.545C464.578 174.729 464.001 175.766 463.167 176.656C462.343 177.537 461.306 178.223 460.056 178.716C458.816 179.199 457.4 179.44 455.809 179.44ZM474.13 149.909V179H469.882V149.909H474.13ZM489.034 179.44C486.988 179.44 485.203 178.972 483.679 178.034C482.154 177.097 480.97 175.785 480.127 174.099C479.285 172.414 478.863 170.444 478.863 168.19C478.863 165.927 479.285 163.948 480.127 162.253C480.97 160.558 482.154 159.241 483.679 158.304C485.203 157.366 486.988 156.898 489.034 156.898C491.079 156.898 492.864 157.366 494.389 158.304C495.913 159.241 497.097 160.558 497.94 162.253C498.783 163.948 499.204 165.927 499.204 168.19C499.204 170.444 498.783 172.414 497.94 174.099C497.097 175.785 495.913 177.097 494.389 178.034C492.864 178.972 491.079 179.44 489.034 179.44ZM489.048 175.875C490.374 175.875 491.472 175.525 492.343 174.824C493.215 174.123 493.859 173.19 494.275 172.026C494.701 170.861 494.914 169.578 494.914 168.176C494.914 166.784 494.701 165.506 494.275 164.341C493.859 163.167 493.215 162.224 492.343 161.514C491.472 160.804 490.374 160.449 489.048 160.449C487.713 160.449 486.605 160.804 485.724 161.514C484.853 162.224 484.204 163.167 483.778 164.341C483.361 165.506 483.153 166.784 483.153 168.176C483.153 169.578 483.361 170.861 483.778 172.026C484.204 173.19 484.853 174.123 485.724 174.824C486.605 175.525 487.713 175.875 489.048 175.875ZM503.945 187.182V157.182H508.093V160.719H508.448C508.694 160.264 509.049 159.739 509.513 159.142C509.977 158.545 510.621 158.025 511.445 157.58C512.269 157.125 513.358 156.898 514.712 156.898C516.473 156.898 518.045 157.343 519.428 158.233C520.81 159.123 521.895 160.406 522.681 162.082C523.476 163.759 523.874 165.776 523.874 168.134C523.874 170.491 523.481 172.513 522.695 174.199C521.909 175.875 520.829 177.168 519.456 178.077C518.083 178.976 516.516 179.426 514.755 179.426C513.429 179.426 512.345 179.204 511.502 178.759C510.668 178.313 510.015 177.793 509.542 177.196C509.068 176.599 508.703 176.069 508.448 175.605H508.192V187.182H503.945ZM508.107 168.091C508.107 169.625 508.329 170.97 508.775 172.125C509.22 173.28 509.864 174.185 510.706 174.838C511.549 175.482 512.581 175.804 513.803 175.804C515.072 175.804 516.132 175.468 516.985 174.795C517.837 174.114 518.481 173.19 518.917 172.026C519.362 170.861 519.584 169.549 519.584 168.091C519.584 166.652 519.366 165.359 518.931 164.213C518.505 163.067 517.861 162.163 516.999 161.5C516.147 160.837 515.081 160.506 513.803 160.506C512.572 160.506 511.53 160.823 510.678 161.457C509.835 162.092 509.196 162.977 508.76 164.114C508.325 165.25 508.107 166.576 508.107 168.091ZM538.036 179.44C535.886 179.44 534.035 178.981 532.482 178.062C530.938 177.134 529.745 175.832 528.902 174.156C528.069 172.471 527.652 170.496 527.652 168.233C527.652 165.998 528.069 164.028 528.902 162.324C529.745 160.619 530.919 159.289 532.425 158.332C533.94 157.376 535.711 156.898 537.738 156.898C538.969 156.898 540.162 157.101 541.317 157.509C542.472 157.916 543.509 158.555 544.428 159.426C545.346 160.297 546.071 161.429 546.601 162.821C547.132 164.204 547.397 165.884 547.397 167.864V169.369H530.053V166.188H543.235C543.235 165.07 543.007 164.08 542.553 163.219C542.098 162.348 541.459 161.661 540.635 161.159C539.821 160.657 538.864 160.406 537.766 160.406C536.573 160.406 535.531 160.7 534.641 161.287C533.76 161.865 533.078 162.622 532.596 163.56C532.122 164.488 531.885 165.496 531.885 166.585V169.071C531.885 170.529 532.141 171.77 532.652 172.793C533.173 173.815 533.898 174.597 534.826 175.136C535.754 175.667 536.838 175.932 538.078 175.932C538.883 175.932 539.617 175.818 540.28 175.591C540.943 175.354 541.516 175.004 541.999 174.54C542.482 174.076 542.851 173.503 543.107 172.821L547.127 173.545C546.805 174.729 546.227 175.766 545.394 176.656C544.57 177.537 543.533 178.223 542.283 178.716C541.042 179.199 539.627 179.44 538.036 179.44ZM552.109 179V157.182H556.214V160.648H556.441C556.839 159.473 557.54 158.55 558.544 157.878C559.557 157.196 560.703 156.855 561.981 156.855C562.246 156.855 562.559 156.865 562.919 156.884C563.288 156.902 563.577 156.926 563.785 156.955V161.017C563.615 160.97 563.312 160.918 562.876 160.861C562.44 160.795 562.005 160.761 561.569 160.761C560.565 160.761 559.671 160.974 558.885 161.401C558.108 161.817 557.493 162.4 557.038 163.148C556.583 163.886 556.356 164.729 556.356 165.676V179H552.109ZM570.486 175.023L570.273 176.571C570.131 177.707 569.89 178.891 569.549 180.122C569.217 181.363 568.872 182.513 568.512 183.574C568.161 184.634 567.873 185.477 567.645 186.102H564.634C564.757 185.515 564.927 184.72 565.145 183.716C565.363 182.722 565.576 181.609 565.784 180.378C565.993 179.147 566.149 177.892 566.253 176.614L566.395 175.023H570.486ZM586.942 179V149.909H591.189V160.719H591.445C591.691 160.264 592.046 159.739 592.51 159.142C592.974 158.545 593.618 158.025 594.442 157.58C595.266 157.125 596.355 156.898 597.709 156.898C599.471 156.898 601.042 157.343 602.425 158.233C603.808 159.123 604.892 160.406 605.678 162.082C606.473 163.759 606.871 165.776 606.871 168.134C606.871 170.491 606.478 172.513 605.692 174.199C604.906 175.875 603.827 177.168 602.453 178.077C601.08 178.976 599.513 179.426 597.752 179.426C596.426 179.426 595.342 179.204 594.499 178.759C593.666 178.313 593.012 177.793 592.539 177.196C592.065 176.599 591.701 176.069 591.445 175.605H591.09V179H586.942ZM591.104 168.091C591.104 169.625 591.327 170.97 591.772 172.125C592.217 173.28 592.861 174.185 593.703 174.838C594.546 175.482 595.578 175.804 596.8 175.804C598.069 175.804 599.13 175.468 599.982 174.795C600.834 174.114 601.478 173.19 601.914 172.026C602.359 170.861 602.581 169.549 602.581 168.091C602.581 166.652 602.364 165.359 601.928 164.213C601.502 163.067 600.858 162.163 599.996 161.5C599.144 160.837 598.078 160.506 596.8 160.506C595.569 160.506 594.527 160.823 593.675 161.457C592.832 162.092 592.193 162.977 591.757 164.114C591.322 165.25 591.104 166.576 591.104 168.091ZM625.461 169.952V157.182H629.723V179H625.547V175.222H625.319C624.817 176.386 624.012 177.357 622.904 178.134C621.806 178.901 620.438 179.284 618.799 179.284C617.398 179.284 616.157 178.976 615.078 178.361C614.008 177.736 613.165 176.812 612.549 175.591C611.943 174.369 611.64 172.859 611.64 171.06V157.182H615.887V170.548C615.887 172.035 616.299 173.219 617.123 174.099C617.947 174.98 619.017 175.42 620.333 175.42C621.129 175.42 621.92 175.222 622.706 174.824C623.501 174.426 624.159 173.825 624.68 173.02C625.21 172.215 625.471 171.192 625.461 169.952ZM645.614 157.182V160.591H633.696V157.182H645.614ZM636.892 151.955H641.14V172.594C641.14 173.418 641.263 174.038 641.509 174.455C641.755 174.862 642.072 175.141 642.461 175.293C642.858 175.435 643.289 175.506 643.753 175.506C644.094 175.506 644.392 175.482 644.648 175.435C644.904 175.387 645.103 175.349 645.245 175.321L646.012 178.83C645.766 178.924 645.415 179.019 644.961 179.114C644.506 179.218 643.938 179.275 643.256 179.284C642.139 179.303 641.097 179.104 640.131 178.688C639.165 178.271 638.384 177.627 637.787 176.756C637.191 175.884 636.892 174.791 636.892 173.474V151.955ZM660.898 179V157.182H665.145V179H660.898ZM663.043 153.815C662.304 153.815 661.67 153.569 661.14 153.077C660.619 152.575 660.358 151.978 660.358 151.287C660.358 150.586 660.619 149.99 661.14 149.497C661.67 148.995 662.304 148.744 663.043 148.744C663.782 148.744 664.411 148.995 664.932 149.497C665.462 149.99 665.728 150.586 665.728 151.287C665.728 151.978 665.462 152.575 664.932 153.077C664.411 153.569 663.782 153.815 663.043 153.815ZM157.276 227.44C155.164 227.44 153.346 226.962 151.821 226.006C150.306 225.04 149.141 223.709 148.327 222.014C147.513 220.319 147.105 218.378 147.105 216.19C147.105 213.974 147.522 212.019 148.355 210.324C149.189 208.619 150.363 207.289 151.878 206.332C153.393 205.376 155.178 204.898 157.233 204.898C158.891 204.898 160.368 205.205 161.665 205.821C162.962 206.427 164.009 207.279 164.804 208.378C165.609 209.476 166.087 210.759 166.239 212.227H162.105C161.878 211.205 161.357 210.324 160.543 209.585C159.738 208.847 158.658 208.477 157.304 208.477C156.121 208.477 155.084 208.79 154.194 209.415C153.313 210.03 152.626 210.911 152.134 212.057C151.641 213.193 151.395 214.538 151.395 216.091C151.395 217.682 151.637 219.055 152.12 220.21C152.603 221.366 153.284 222.26 154.165 222.895C155.055 223.529 156.102 223.847 157.304 223.847C158.109 223.847 158.838 223.7 159.492 223.406C160.155 223.103 160.709 222.672 161.154 222.114C161.608 221.555 161.926 220.883 162.105 220.097H166.239C166.087 221.508 165.628 222.767 164.861 223.875C164.094 224.983 163.067 225.854 161.779 226.489C160.5 227.123 158.999 227.44 157.276 227.44ZM177.13 227.483C175.748 227.483 174.498 227.227 173.38 226.716C172.263 226.195 171.377 225.442 170.724 224.457C170.08 223.473 169.758 222.265 169.758 220.835C169.758 219.604 169.995 218.591 170.468 217.795C170.942 217 171.581 216.37 172.386 215.906C173.191 215.442 174.091 215.092 175.085 214.855C176.079 214.618 177.092 214.438 178.125 214.315C179.431 214.164 180.492 214.041 181.306 213.946C182.121 213.842 182.713 213.676 183.082 213.449C183.451 213.222 183.636 212.852 183.636 212.341V212.241C183.636 211.001 183.286 210.04 182.585 209.358C181.894 208.676 180.861 208.335 179.488 208.335C178.058 208.335 176.931 208.652 176.108 209.287C175.293 209.912 174.73 210.608 174.417 211.375L170.426 210.466C170.899 209.14 171.591 208.07 172.5 207.256C173.418 206.432 174.474 205.835 175.667 205.466C176.86 205.087 178.115 204.898 179.431 204.898C180.303 204.898 181.226 205.002 182.201 205.21C183.186 205.409 184.105 205.778 184.957 206.318C185.819 206.858 186.524 207.63 187.074 208.634C187.623 209.628 187.897 210.92 187.897 212.511V227H183.75V224.017H183.579C183.305 224.566 182.893 225.106 182.343 225.636C181.794 226.167 181.089 226.607 180.227 226.957C179.365 227.308 178.333 227.483 177.13 227.483ZM178.054 224.074C179.228 224.074 180.232 223.842 181.065 223.378C181.908 222.914 182.547 222.308 182.983 221.56C183.428 220.802 183.65 219.992 183.65 219.131V216.318C183.499 216.47 183.205 216.612 182.77 216.744C182.343 216.867 181.856 216.976 181.306 217.071C180.757 217.156 180.222 217.237 179.701 217.312C179.181 217.379 178.745 217.436 178.395 217.483C177.571 217.587 176.818 217.762 176.136 218.009C175.464 218.255 174.924 218.61 174.517 219.074C174.119 219.528 173.92 220.134 173.92 220.892C173.92 221.943 174.308 222.739 175.085 223.278C175.861 223.809 176.851 224.074 178.054 224.074ZM197.801 214.045V227H193.554V205.182H197.631V208.733H197.901C198.403 207.578 199.189 206.65 200.259 205.949C201.338 205.248 202.697 204.898 204.336 204.898C205.822 204.898 207.124 205.21 208.242 205.835C209.359 206.451 210.226 207.369 210.841 208.591C211.457 209.812 211.765 211.323 211.765 213.122V227H207.517V213.634C207.517 212.052 207.105 210.816 206.282 209.926C205.458 209.027 204.326 208.577 202.887 208.577C201.902 208.577 201.026 208.79 200.259 209.216C199.501 209.642 198.9 210.267 198.455 211.091C198.019 211.905 197.801 212.89 197.801 214.045ZM237.237 227.44C235.125 227.44 233.307 226.962 231.782 226.006C230.267 225.04 229.102 223.709 228.288 222.014C227.474 220.319 227.066 218.378 227.066 216.19C227.066 213.974 227.483 212.019 228.316 210.324C229.15 208.619 230.324 207.289 231.839 206.332C233.354 205.376 235.139 204.898 237.194 204.898C238.851 204.898 240.329 205.205 241.626 205.821C242.923 206.427 243.97 207.279 244.765 208.378C245.57 209.476 246.048 210.759 246.2 212.227H242.066C241.839 211.205 241.318 210.324 240.504 209.585C239.699 208.847 238.619 208.477 237.265 208.477C236.082 208.477 235.045 208.79 234.154 209.415C233.274 210.03 232.587 210.911 232.095 212.057C231.602 213.193 231.356 214.538 231.356 216.091C231.356 217.682 231.598 219.055 232.081 220.21C232.564 221.366 233.245 222.26 234.126 222.895C235.016 223.529 236.063 223.847 237.265 223.847C238.07 223.847 238.799 223.7 239.453 223.406C240.116 223.103 240.67 222.672 241.115 222.114C241.569 221.555 241.886 220.883 242.066 220.097H246.2C246.048 221.508 245.589 222.767 244.822 223.875C244.055 224.983 243.028 225.854 241.74 226.489C240.461 227.123 238.96 227.44 237.237 227.44ZM259.932 227.44C257.887 227.44 256.102 226.972 254.577 226.034C253.052 225.097 251.869 223.785 251.026 222.099C250.183 220.414 249.762 218.444 249.762 216.19C249.762 213.927 250.183 211.948 251.026 210.253C251.869 208.558 253.052 207.241 254.577 206.304C256.102 205.366 257.887 204.898 259.932 204.898C261.978 204.898 263.763 205.366 265.287 206.304C266.812 207.241 267.996 208.558 268.838 210.253C269.681 211.948 270.103 213.927 270.103 216.19C270.103 218.444 269.681 220.414 268.838 222.099C267.996 223.785 266.812 225.097 265.287 226.034C263.763 226.972 261.978 227.44 259.932 227.44ZM259.946 223.875C261.272 223.875 262.371 223.525 263.242 222.824C264.113 222.123 264.757 221.19 265.174 220.026C265.6 218.861 265.813 217.578 265.813 216.176C265.813 214.784 265.6 213.506 265.174 212.341C264.757 211.167 264.113 210.224 263.242 209.514C262.371 208.804 261.272 208.449 259.946 208.449C258.611 208.449 257.503 208.804 256.623 209.514C255.751 210.224 255.103 211.167 254.676 212.341C254.26 213.506 254.051 214.784 254.051 216.176C254.051 217.578 254.26 218.861 254.676 220.026C255.103 221.19 255.751 222.123 256.623 222.824C257.503 223.525 258.611 223.875 259.946 223.875ZM274.843 227V205.182H278.92V208.733H279.19C279.645 207.53 280.388 206.593 281.42 205.92C282.452 205.239 283.688 204.898 285.127 204.898C286.586 204.898 287.807 205.239 288.792 205.92C289.787 206.602 290.52 207.54 290.994 208.733H291.221C291.742 207.568 292.571 206.64 293.707 205.949C294.843 205.248 296.198 204.898 297.77 204.898C299.749 204.898 301.363 205.518 302.613 206.759C303.873 207.999 304.502 209.869 304.502 212.369V227H300.255V212.767C300.255 211.29 299.853 210.22 299.048 209.557C298.243 208.894 297.282 208.562 296.164 208.562C294.782 208.562 293.707 208.989 292.94 209.841C292.173 210.684 291.789 211.768 291.789 213.094V227H287.556V212.497C287.556 211.313 287.187 210.362 286.449 209.642C285.71 208.922 284.749 208.562 283.565 208.562C282.76 208.562 282.017 208.776 281.335 209.202C280.663 209.618 280.118 210.201 279.701 210.949C279.294 211.697 279.091 212.563 279.091 213.548V227H274.843ZM319.598 227.44C317.449 227.44 315.597 226.981 314.044 226.062C312.501 225.134 311.308 223.832 310.465 222.156C309.632 220.471 309.215 218.496 309.215 216.233C309.215 213.998 309.632 212.028 310.465 210.324C311.308 208.619 312.482 207.289 313.988 206.332C315.503 205.376 317.274 204.898 319.3 204.898C320.531 204.898 321.724 205.101 322.88 205.509C324.035 205.916 325.072 206.555 325.99 207.426C326.909 208.297 327.633 209.429 328.164 210.821C328.694 212.204 328.959 213.884 328.959 215.864V217.369H311.615V214.188H324.797C324.797 213.07 324.57 212.08 324.115 211.219C323.661 210.348 323.022 209.661 322.198 209.159C321.383 208.657 320.427 208.406 319.328 208.406C318.135 208.406 317.094 208.7 316.203 209.287C315.323 209.865 314.641 210.622 314.158 211.56C313.685 212.488 313.448 213.496 313.448 214.585V217.071C313.448 218.529 313.703 219.77 314.215 220.793C314.736 221.815 315.46 222.597 316.388 223.136C317.316 223.667 318.4 223.932 319.641 223.932C320.446 223.932 321.18 223.818 321.843 223.591C322.506 223.354 323.078 223.004 323.561 222.54C324.044 222.076 324.414 221.503 324.669 220.821L328.689 221.545C328.367 222.729 327.79 223.766 326.956 224.656C326.132 225.537 325.096 226.223 323.846 226.716C322.605 227.199 321.189 227.44 319.598 227.44ZM353.448 227.44C351.402 227.44 349.617 226.972 348.093 226.034C346.568 225.097 345.384 223.785 344.542 222.099C343.699 220.414 343.277 218.444 343.277 216.19C343.277 213.927 343.699 211.948 344.542 210.253C345.384 208.558 346.568 207.241 348.093 206.304C349.617 205.366 351.402 204.898 353.448 204.898C355.493 204.898 357.278 205.366 358.803 206.304C360.328 207.241 361.511 208.558 362.354 210.253C363.197 211.948 363.618 213.927 363.618 216.19C363.618 218.444 363.197 220.414 362.354 222.099C361.511 223.785 360.328 225.097 358.803 226.034C357.278 226.972 355.493 227.44 353.448 227.44ZM353.462 223.875C354.788 223.875 355.886 223.525 356.757 222.824C357.629 222.123 358.273 221.19 358.689 220.026C359.115 218.861 359.328 217.578 359.328 216.176C359.328 214.784 359.115 213.506 358.689 212.341C358.273 211.167 357.629 210.224 356.757 209.514C355.886 208.804 354.788 208.449 353.462 208.449C352.127 208.449 351.019 208.804 350.138 209.514C349.267 210.224 348.618 211.167 348.192 212.341C347.775 213.506 347.567 214.784 347.567 216.176C347.567 217.578 347.775 218.861 348.192 220.026C348.618 221.19 349.267 222.123 350.138 222.824C351.019 223.525 352.127 223.875 353.462 223.875ZM382.18 217.952V205.182H386.441V227H382.265V223.222H382.038C381.536 224.386 380.731 225.357 379.623 226.134C378.525 226.901 377.156 227.284 375.518 227.284C374.117 227.284 372.876 226.976 371.797 226.361C370.726 225.736 369.884 224.812 369.268 223.591C368.662 222.369 368.359 220.859 368.359 219.06V205.182H372.606V218.548C372.606 220.035 373.018 221.219 373.842 222.099C374.666 222.98 375.736 223.42 377.052 223.42C377.848 223.42 378.638 223.222 379.424 222.824C380.22 222.426 380.878 221.825 381.399 221.02C381.929 220.215 382.19 219.192 382.18 217.952ZM402.333 205.182V208.591H390.415V205.182H402.333ZM393.611 199.955H397.858V220.594C397.858 221.418 397.981 222.038 398.228 222.455C398.474 222.862 398.791 223.141 399.179 223.293C399.577 223.435 400.008 223.506 400.472 223.506C400.813 223.506 401.111 223.482 401.367 223.435C401.623 223.387 401.821 223.349 401.963 223.321L402.73 226.83C402.484 226.924 402.134 227.019 401.679 227.114C401.225 227.218 400.657 227.275 399.975 227.284C398.857 227.303 397.816 227.104 396.85 226.688C395.884 226.271 395.103 225.627 394.506 224.756C393.909 223.884 393.611 222.791 393.611 221.474V199.955ZM426.807 227.44C424.762 227.44 422.977 226.972 421.452 226.034C419.927 225.097 418.744 223.785 417.901 222.099C417.058 220.414 416.637 218.444 416.637 216.19C416.637 213.927 417.058 211.948 417.901 210.253C418.744 208.558 419.927 207.241 421.452 206.304C422.977 205.366 424.762 204.898 426.807 204.898C428.853 204.898 430.638 205.366 432.162 206.304C433.687 207.241 434.871 208.558 435.713 210.253C436.556 211.948 436.978 213.927 436.978 216.19C436.978 218.444 436.556 220.414 435.713 222.099C434.871 223.785 433.687 225.097 432.162 226.034C430.638 226.972 428.853 227.44 426.807 227.44ZM426.821 223.875C428.147 223.875 429.246 223.525 430.117 222.824C430.988 222.123 431.632 221.19 432.049 220.026C432.475 218.861 432.688 217.578 432.688 216.176C432.688 214.784 432.475 213.506 432.049 212.341C431.632 211.167 430.988 210.224 430.117 209.514C429.246 208.804 428.147 208.449 426.821 208.449C425.486 208.449 424.378 208.804 423.498 209.514C422.626 210.224 421.978 211.167 421.551 212.341C421.135 213.506 420.926 214.784 420.926 216.176C420.926 217.578 421.135 218.861 421.551 220.026C421.978 221.19 422.626 222.123 423.498 222.824C424.378 223.525 425.486 223.875 426.821 223.875ZM452.102 205.182V208.591H439.772V205.182H452.102ZM443.153 227V202.653C443.153 201.29 443.451 200.158 444.048 199.259C444.645 198.349 445.435 197.672 446.42 197.227C447.405 196.773 448.475 196.545 449.63 196.545C450.483 196.545 451.212 196.616 451.818 196.759C452.424 196.891 452.874 197.014 453.167 197.128L452.173 200.565C451.974 200.509 451.718 200.442 451.406 200.366C451.093 200.281 450.715 200.239 450.27 200.239C449.237 200.239 448.499 200.494 448.054 201.006C447.618 201.517 447.4 202.256 447.4 203.222V227H443.153ZM467.07 227V205.182H471.175V208.648H471.402C471.8 207.473 472.501 206.55 473.505 205.878C474.518 205.196 475.664 204.855 476.942 204.855C477.207 204.855 477.52 204.865 477.88 204.884C478.249 204.902 478.538 204.926 478.746 204.955V209.017C478.576 208.97 478.273 208.918 477.837 208.861C477.401 208.795 476.966 208.761 476.53 208.761C475.526 208.761 474.632 208.974 473.846 209.401C473.069 209.817 472.453 210.4 471.999 211.148C471.544 211.886 471.317 212.729 471.317 213.676V227H467.07ZM491.044 227.44C488.894 227.44 487.043 226.981 485.49 226.062C483.946 225.134 482.753 223.832 481.91 222.156C481.077 220.471 480.66 218.496 480.66 216.233C480.66 213.998 481.077 212.028 481.91 210.324C482.753 208.619 483.927 207.289 485.433 206.332C486.948 205.376 488.719 204.898 490.745 204.898C491.976 204.898 493.17 205.101 494.325 205.509C495.48 205.916 496.517 206.555 497.436 207.426C498.354 208.297 499.079 209.429 499.609 210.821C500.139 212.204 500.404 213.884 500.404 215.864V217.369H483.061V214.188H496.243C496.243 213.07 496.015 212.08 495.561 211.219C495.106 210.348 494.467 209.661 493.643 209.159C492.829 208.657 491.872 208.406 490.774 208.406C489.581 208.406 488.539 208.7 487.649 209.287C486.768 209.865 486.086 210.622 485.603 211.56C485.13 212.488 484.893 213.496 484.893 214.585V217.071C484.893 218.529 485.149 219.77 485.66 220.793C486.181 221.815 486.905 222.597 487.833 223.136C488.761 223.667 489.846 223.932 491.086 223.932C491.891 223.932 492.625 223.818 493.288 223.591C493.951 223.354 494.524 223.004 495.007 222.54C495.49 222.076 495.859 221.503 496.115 220.821L500.135 221.545C499.813 222.729 499.235 223.766 498.402 224.656C497.578 225.537 496.541 226.223 495.291 226.716C494.05 227.199 492.635 227.44 491.044 227.44ZM515.301 205.182V208.591H503.384V205.182H515.301ZM506.58 199.955H510.827V220.594C510.827 221.418 510.95 222.038 511.196 222.455C511.443 222.862 511.76 223.141 512.148 223.293C512.546 223.435 512.977 223.506 513.441 223.506C513.782 223.506 514.08 223.482 514.336 223.435C514.591 223.387 514.79 223.349 514.932 223.321L515.699 226.83C515.453 226.924 515.103 227.019 514.648 227.114C514.194 227.218 513.625 227.275 512.944 227.284C511.826 227.303 510.784 227.104 509.819 226.688C508.853 226.271 508.071 225.627 507.475 224.756C506.878 223.884 506.58 222.791 506.58 221.474V199.955ZM520 227V205.182H524.247V227H520ZM522.145 201.815C521.406 201.815 520.771 201.569 520.241 201.077C519.72 200.575 519.46 199.978 519.46 199.287C519.46 198.586 519.72 197.99 520.241 197.497C520.771 196.995 521.406 196.744 522.145 196.744C522.883 196.744 523.513 196.995 524.034 197.497C524.564 197.99 524.829 198.586 524.829 199.287C524.829 199.978 524.564 200.575 524.034 201.077C523.513 201.569 522.883 201.815 522.145 201.815ZM529.961 227V205.182H534.066V208.648H534.293C534.691 207.473 535.391 206.55 536.395 205.878C537.408 205.196 538.554 204.855 539.833 204.855C540.098 204.855 540.41 204.865 540.77 204.884C541.14 204.902 541.428 204.926 541.637 204.955V209.017C541.466 208.97 541.163 208.918 540.728 208.861C540.292 208.795 539.856 208.761 539.421 208.761C538.417 208.761 537.522 208.974 536.736 209.401C535.96 209.817 535.344 210.4 534.89 211.148C534.435 211.886 534.208 212.729 534.208 213.676V227H529.961ZM553.934 227.44C551.785 227.44 549.933 226.981 548.38 226.062C546.837 225.134 545.644 223.832 544.801 222.156C543.967 220.471 543.551 218.496 543.551 216.233C543.551 213.998 543.967 212.028 544.801 210.324C545.644 208.619 546.818 207.289 548.324 206.332C549.839 205.376 551.609 204.898 553.636 204.898C554.867 204.898 556.06 205.101 557.216 205.509C558.371 205.916 559.408 206.555 560.326 207.426C561.245 208.297 561.969 209.429 562.5 210.821C563.03 212.204 563.295 213.884 563.295 215.864V217.369H545.951V214.188H559.133C559.133 213.07 558.906 212.08 558.451 211.219C557.997 210.348 557.358 209.661 556.534 209.159C555.719 208.657 554.763 208.406 553.664 208.406C552.471 208.406 551.43 208.7 550.539 209.287C549.659 209.865 548.977 210.622 548.494 211.56C548.02 212.488 547.784 213.496 547.784 214.585V217.071C547.784 218.529 548.039 219.77 548.551 220.793C549.072 221.815 549.796 222.597 550.724 223.136C551.652 223.667 552.736 223.932 553.977 223.932C554.782 223.932 555.516 223.818 556.179 223.591C556.842 223.354 557.414 223.004 557.897 222.54C558.38 222.076 558.75 221.503 559.005 220.821L563.025 221.545C562.703 222.729 562.126 223.766 561.292 224.656C560.468 225.537 559.431 226.223 558.181 226.716C556.941 227.199 555.525 227.44 553.934 227.44ZM568.007 227V205.182H572.084V208.733H572.354C572.809 207.53 573.552 206.593 574.584 205.92C575.616 205.239 576.852 204.898 578.292 204.898C579.75 204.898 580.971 205.239 581.956 205.92C582.951 206.602 583.685 207.54 584.158 208.733H584.385C584.906 207.568 585.735 206.64 586.871 205.949C588.007 205.248 589.362 204.898 590.934 204.898C592.913 204.898 594.527 205.518 595.777 206.759C597.037 207.999 597.667 209.869 597.667 212.369V227H593.419V212.767C593.419 211.29 593.017 210.22 592.212 209.557C591.407 208.894 590.446 208.562 589.328 208.562C587.946 208.562 586.871 208.989 586.104 209.841C585.337 210.684 584.953 211.768 584.953 213.094V227H580.721V212.497C580.721 211.313 580.351 210.362 579.613 209.642C578.874 208.922 577.913 208.562 576.729 208.562C575.924 208.562 575.181 208.776 574.499 209.202C573.827 209.618 573.282 210.201 572.865 210.949C572.458 211.697 572.255 212.563 572.255 213.548V227H568.007ZM612.762 227.44C610.613 227.44 608.761 226.981 607.208 226.062C605.665 225.134 604.472 223.832 603.629 222.156C602.796 220.471 602.379 218.496 602.379 216.233C602.379 213.998 602.796 212.028 603.629 210.324C604.472 208.619 605.646 207.289 607.152 206.332C608.667 205.376 610.438 204.898 612.464 204.898C613.695 204.898 614.888 205.101 616.044 205.509C617.199 205.916 618.236 206.555 619.154 207.426C620.073 208.297 620.797 209.429 621.328 210.821C621.858 212.204 622.123 213.884 622.123 215.864V217.369H604.779V214.188H617.961C617.961 213.07 617.734 212.08 617.279 211.219C616.825 210.348 616.186 209.661 615.362 209.159C614.547 208.657 613.591 208.406 612.493 208.406C611.299 208.406 610.258 208.7 609.368 209.287C608.487 209.865 607.805 210.622 607.322 211.56C606.849 212.488 606.612 213.496 606.612 214.585V217.071C606.612 218.529 606.868 219.77 607.379 220.793C607.9 221.815 608.624 222.597 609.552 223.136C610.48 223.667 611.565 223.932 612.805 223.932C613.61 223.932 614.344 223.818 615.007 223.591C615.67 223.354 616.243 223.004 616.725 222.54C617.208 222.076 617.578 221.503 617.833 220.821L621.853 221.545C621.531 222.729 620.954 223.766 620.12 224.656C619.297 225.537 618.26 226.223 617.01 226.716C615.769 227.199 614.353 227.44 612.762 227.44ZM631.083 214.045V227H626.836V205.182H630.912V208.733H631.182C631.684 207.578 632.47 206.65 633.54 205.949C634.62 205.248 635.979 204.898 637.617 204.898C639.104 204.898 640.406 205.21 641.523 205.835C642.641 206.451 643.507 207.369 644.123 208.591C644.738 209.812 645.046 211.323 645.046 213.122V227H640.799V213.634C640.799 212.052 640.387 210.816 639.563 209.926C638.739 209.027 637.607 208.577 636.168 208.577C635.183 208.577 634.307 208.79 633.54 209.216C632.783 209.642 632.181 210.267 631.736 211.091C631.301 211.905 631.083 212.89 631.083 214.045ZM660.926 205.182V208.591H649.009V205.182H660.926ZM652.205 199.955H656.452V220.594C656.452 221.418 656.575 222.038 656.821 222.455C657.068 222.862 657.385 223.141 657.773 223.293C658.171 223.435 658.602 223.506 659.066 223.506C659.407 223.506 659.705 223.482 659.961 223.435C660.216 223.387 660.415 223.349 660.557 223.321L661.324 226.83C661.078 226.924 660.728 227.019 660.273 227.114C659.819 227.218 659.25 227.275 658.569 227.284C657.451 227.303 656.409 227.104 655.444 226.688C654.478 226.271 653.696 225.627 653.1 224.756C652.503 223.884 652.205 222.791 652.205 221.474V199.955ZM249.7 253.182V256.591H237.37V253.182H249.7ZM240.751 275V250.653C240.751 249.29 241.049 248.158 241.646 247.259C242.242 246.349 243.033 245.672 244.018 245.227C245.003 244.773 246.073 244.545 247.228 244.545C248.08 244.545 248.809 244.616 249.415 244.759C250.022 244.891 250.471 245.014 250.765 245.128L249.771 248.565C249.572 248.509 249.316 248.442 249.004 248.366C248.691 248.281 248.312 248.239 247.867 248.239C246.835 248.239 246.096 248.494 245.651 249.006C245.216 249.517 244.998 250.256 244.998 251.222V275H240.751ZM262.413 275.44C260.367 275.44 258.582 274.972 257.058 274.034C255.533 273.097 254.349 271.785 253.506 270.099C252.664 268.414 252.242 266.444 252.242 264.19C252.242 261.927 252.664 259.948 253.506 258.253C254.349 256.558 255.533 255.241 257.058 254.304C258.582 253.366 260.367 252.898 262.413 252.898C264.458 252.898 266.243 253.366 267.768 254.304C269.292 255.241 270.476 256.558 271.319 258.253C272.162 259.948 272.583 261.927 272.583 264.19C272.583 266.444 272.162 268.414 271.319 270.099C270.476 271.785 269.292 273.097 267.768 274.034C266.243 274.972 264.458 275.44 262.413 275.44ZM262.427 271.875C263.753 271.875 264.851 271.525 265.722 270.824C266.594 270.123 267.237 269.19 267.654 268.026C268.08 266.861 268.293 265.578 268.293 264.176C268.293 262.784 268.08 261.506 267.654 260.341C267.237 259.167 266.594 258.224 265.722 257.514C264.851 256.804 263.753 256.449 262.427 256.449C261.092 256.449 259.984 256.804 259.103 257.514C258.232 258.224 257.583 259.167 257.157 260.341C256.74 261.506 256.532 262.784 256.532 264.176C256.532 265.578 256.74 266.861 257.157 268.026C257.583 269.19 258.232 270.123 259.103 270.824C259.984 271.525 261.092 271.875 262.427 271.875ZM277.324 275V253.182H281.429V256.648H281.656C282.054 255.473 282.755 254.55 283.759 253.878C284.772 253.196 285.918 252.855 287.196 252.855C287.461 252.855 287.774 252.865 288.134 252.884C288.503 252.902 288.792 252.926 289 252.955V257.017C288.83 256.97 288.527 256.918 288.091 256.861C287.655 256.795 287.22 256.761 286.784 256.761C285.78 256.761 284.885 256.974 284.099 257.401C283.323 257.817 282.707 258.4 282.253 259.148C281.798 259.886 281.571 260.729 281.571 261.676V275H277.324ZM305.946 283.182C305.312 283.182 304.734 283.13 304.213 283.026C303.692 282.931 303.304 282.827 303.048 282.713L304.071 279.233C304.848 279.441 305.539 279.531 306.145 279.503C306.751 279.474 307.286 279.247 307.75 278.821C308.223 278.395 308.64 277.699 309 276.733L309.526 275.284L301.543 253.182H306.088L311.614 270.114H311.841L317.366 253.182H321.926L312.935 277.912C312.518 279.048 311.988 280.009 311.344 280.795C310.7 281.591 309.933 282.188 309.043 282.585C308.152 282.983 307.12 283.182 305.946 283.182ZM334.366 275.44C332.32 275.44 330.535 274.972 329.011 274.034C327.486 273.097 326.302 271.785 325.46 270.099C324.617 268.414 324.195 266.444 324.195 264.19C324.195 261.927 324.617 259.948 325.46 258.253C326.302 256.558 327.486 255.241 329.011 254.304C330.535 253.366 332.32 252.898 334.366 252.898C336.411 252.898 338.196 253.366 339.721 254.304C341.246 255.241 342.429 256.558 343.272 258.253C344.115 259.948 344.536 261.927 344.536 264.19C344.536 266.444 344.115 268.414 343.272 270.099C342.429 271.785 341.246 273.097 339.721 274.034C338.196 274.972 336.411 275.44 334.366 275.44ZM334.38 271.875C335.706 271.875 336.804 271.525 337.675 270.824C338.547 270.123 339.191 269.19 339.607 268.026C340.033 266.861 340.246 265.578 340.246 264.176C340.246 262.784 340.033 261.506 339.607 260.341C339.191 259.167 338.547 258.224 337.675 257.514C336.804 256.804 335.706 256.449 334.38 256.449C333.045 256.449 331.937 256.804 331.056 257.514C330.185 258.224 329.536 259.167 329.11 260.341C328.693 261.506 328.485 262.784 328.485 264.176C328.485 265.578 328.693 266.861 329.11 268.026C329.536 269.19 330.185 270.123 331.056 270.824C331.937 271.525 333.045 271.875 334.38 271.875ZM363.098 265.952V253.182H367.359V275H363.183V271.222H362.956C362.454 272.386 361.649 273.357 360.541 274.134C359.443 274.901 358.074 275.284 356.436 275.284C355.035 275.284 353.794 274.976 352.714 274.361C351.644 273.736 350.802 272.812 350.186 271.591C349.58 270.369 349.277 268.859 349.277 267.06V253.182H353.524V266.548C353.524 268.035 353.936 269.219 354.76 270.099C355.584 270.98 356.654 271.42 357.97 271.42C358.766 271.42 359.556 271.222 360.342 270.824C361.138 270.426 361.796 269.825 362.317 269.02C362.847 268.215 363.107 267.192 363.098 265.952ZM373.066 275V253.182H377.171V256.648H377.398C377.796 255.473 378.497 254.55 379.501 253.878C380.514 253.196 381.66 252.855 382.938 252.855C383.203 252.855 383.516 252.865 383.876 252.884C384.245 252.902 384.534 252.926 384.742 252.955V257.017C384.572 256.97 384.269 256.918 383.833 256.861C383.397 256.795 382.962 256.761 382.526 256.761C381.522 256.761 380.628 256.974 379.842 257.401C379.065 257.817 378.45 258.4 377.995 259.148C377.54 259.886 377.313 260.729 377.313 261.676V275H373.066ZM408.194 275.44C406.082 275.44 404.264 274.962 402.739 274.006C401.224 273.04 400.059 271.709 399.245 270.014C398.431 268.319 398.023 266.378 398.023 264.19C398.023 261.974 398.44 260.019 399.273 258.324C400.107 256.619 401.281 255.289 402.796 254.332C404.311 253.376 406.096 252.898 408.151 252.898C409.808 252.898 411.286 253.205 412.583 253.821C413.88 254.427 414.927 255.279 415.722 256.378C416.527 257.476 417.005 258.759 417.157 260.227H413.023C412.796 259.205 412.275 258.324 411.461 257.585C410.656 256.847 409.576 256.477 408.222 256.477C407.039 256.477 406.002 256.79 405.112 257.415C404.231 258.03 403.544 258.911 403.052 260.057C402.559 261.193 402.313 262.538 402.313 264.091C402.313 265.682 402.555 267.055 403.038 268.21C403.521 269.366 404.202 270.26 405.083 270.895C405.973 271.529 407.02 271.847 408.222 271.847C409.027 271.847 409.756 271.7 410.41 271.406C411.073 271.103 411.627 270.672 412.072 270.114C412.526 269.555 412.844 268.883 413.023 268.097H417.157C417.005 269.508 416.546 270.767 415.779 271.875C415.012 272.983 413.985 273.854 412.697 274.489C411.418 275.123 409.917 275.44 408.194 275.44ZM430.889 275.44C428.844 275.44 427.059 274.972 425.534 274.034C424.009 273.097 422.826 271.785 421.983 270.099C421.14 268.414 420.719 266.444 420.719 264.19C420.719 261.927 421.14 259.948 421.983 258.253C422.826 256.558 424.009 255.241 425.534 254.304C427.059 253.366 428.844 252.898 430.889 252.898C432.935 252.898 434.72 253.366 436.244 254.304C437.769 255.241 438.953 256.558 439.795 258.253C440.638 259.948 441.06 261.927 441.06 264.19C441.06 266.444 440.638 268.414 439.795 270.099C438.953 271.785 437.769 273.097 436.244 274.034C434.72 274.972 432.935 275.44 430.889 275.44ZM430.903 271.875C432.229 271.875 433.328 271.525 434.199 270.824C435.07 270.123 435.714 269.19 436.131 268.026C436.557 266.861 436.77 265.578 436.77 264.176C436.77 262.784 436.557 261.506 436.131 260.341C435.714 259.167 435.07 258.224 434.199 257.514C433.328 256.804 432.229 256.449 430.903 256.449C429.568 256.449 428.46 256.804 427.58 257.514C426.708 258.224 426.06 259.167 425.634 260.341C425.217 261.506 425.009 262.784 425.009 264.176C425.009 265.578 425.217 266.861 425.634 268.026C426.06 269.19 426.708 270.123 427.58 270.824C428.46 271.525 429.568 271.875 430.903 271.875ZM445.8 275V253.182H449.877V256.733H450.147C450.602 255.53 451.345 254.593 452.377 253.92C453.409 253.239 454.645 252.898 456.085 252.898C457.543 252.898 458.764 253.239 459.749 253.92C460.744 254.602 461.478 255.54 461.951 256.733H462.178C462.699 255.568 463.528 254.64 464.664 253.949C465.8 253.248 467.155 252.898 468.727 252.898C470.706 252.898 472.32 253.518 473.57 254.759C474.83 255.999 475.46 257.869 475.46 260.369V275H471.212V260.767C471.212 259.29 470.81 258.22 470.005 257.557C469.2 256.894 468.239 256.562 467.121 256.562C465.739 256.562 464.664 256.989 463.897 257.841C463.13 258.684 462.746 259.768 462.746 261.094V275H458.513V260.497C458.513 259.313 458.144 258.362 457.406 257.642C456.667 256.922 455.706 256.562 454.522 256.562C453.717 256.562 452.974 256.776 452.292 257.202C451.62 257.618 451.075 258.201 450.658 258.949C450.251 259.697 450.048 260.563 450.048 261.548V275H445.8ZM481.152 283.182V253.182H485.3V256.719H485.655C485.901 256.264 486.256 255.739 486.72 255.142C487.184 254.545 487.828 254.025 488.652 253.58C489.476 253.125 490.565 252.898 491.919 252.898C493.68 252.898 495.252 253.343 496.635 254.233C498.018 255.123 499.102 256.406 499.888 258.082C500.683 259.759 501.081 261.776 501.081 264.134C501.081 266.491 500.688 268.513 499.902 270.199C499.116 271.875 498.036 273.168 496.663 274.077C495.29 274.976 493.723 275.426 491.962 275.426C490.636 275.426 489.552 275.204 488.709 274.759C487.875 274.313 487.222 273.793 486.749 273.196C486.275 272.599 485.911 272.069 485.655 271.605H485.399V283.182H481.152ZM485.314 264.091C485.314 265.625 485.536 266.97 485.982 268.125C486.427 269.28 487.071 270.185 487.913 270.838C488.756 271.482 489.788 271.804 491.01 271.804C492.279 271.804 493.339 271.468 494.192 270.795C495.044 270.114 495.688 269.19 496.124 268.026C496.569 266.861 496.791 265.549 496.791 264.091C496.791 262.652 496.573 261.359 496.138 260.213C495.712 259.067 495.068 258.163 494.206 257.5C493.354 256.837 492.288 256.506 491.01 256.506C489.779 256.506 488.737 256.823 487.885 257.457C487.042 258.092 486.403 258.977 485.967 260.114C485.532 261.25 485.314 262.576 485.314 264.091ZM512.189 275.483C510.806 275.483 509.556 275.227 508.439 274.716C507.321 274.195 506.436 273.442 505.783 272.457C505.139 271.473 504.817 270.265 504.817 268.835C504.817 267.604 505.054 266.591 505.527 265.795C506 265 506.64 264.37 507.445 263.906C508.25 263.442 509.149 263.092 510.143 262.855C511.138 262.618 512.151 262.438 513.183 262.315C514.49 262.164 515.551 262.041 516.365 261.946C517.179 261.842 517.771 261.676 518.141 261.449C518.51 261.222 518.695 260.852 518.695 260.341V260.241C518.695 259.001 518.344 258.04 517.643 257.358C516.952 256.676 515.92 256.335 514.547 256.335C513.117 256.335 511.99 256.652 511.166 257.287C510.352 257.912 509.788 258.608 509.476 259.375L505.484 258.466C505.958 257.14 506.649 256.07 507.558 255.256C508.477 254.432 509.533 253.835 510.726 253.466C511.919 253.087 513.174 252.898 514.49 252.898C515.361 252.898 516.285 253.002 517.26 253.21C518.245 253.409 519.163 253.778 520.016 254.318C520.877 254.858 521.583 255.63 522.132 256.634C522.681 257.628 522.956 258.92 522.956 260.511V275H518.808V272.017H518.638C518.363 272.566 517.951 273.106 517.402 273.636C516.853 274.167 516.147 274.607 515.286 274.957C514.424 275.308 513.392 275.483 512.189 275.483ZM513.112 272.074C514.286 272.074 515.29 271.842 516.124 271.378C516.966 270.914 517.606 270.308 518.041 269.56C518.486 268.802 518.709 267.992 518.709 267.131V264.318C518.557 264.47 518.264 264.612 517.828 264.744C517.402 264.867 516.914 264.976 516.365 265.071C515.816 265.156 515.281 265.237 514.76 265.312C514.239 265.379 513.804 265.436 513.453 265.483C512.629 265.587 511.876 265.762 511.195 266.009C510.522 266.255 509.982 266.61 509.575 267.074C509.178 267.528 508.979 268.134 508.979 268.892C508.979 269.943 509.367 270.739 510.143 271.278C510.92 271.809 511.91 272.074 513.112 272.074ZM532.86 262.045V275H528.613V253.182H532.69V256.733H532.96C533.461 255.578 534.247 254.65 535.317 253.949C536.397 253.248 537.756 252.898 539.394 252.898C540.881 252.898 542.183 253.21 543.3 253.835C544.418 254.451 545.284 255.369 545.9 256.591C546.515 257.812 546.823 259.323 546.823 261.122V275H542.576V261.634C542.576 260.052 542.164 258.816 541.34 257.926C540.516 257.027 539.385 256.577 537.945 256.577C536.96 256.577 536.085 256.79 535.317 257.216C534.56 257.642 533.959 258.267 533.513 259.091C533.078 259.905 532.86 260.89 532.86 262.045ZM554.423 283.182C553.788 283.182 553.21 283.13 552.69 283.026C552.169 282.931 551.781 282.827 551.525 282.713L552.548 279.233C553.324 279.441 554.015 279.531 554.621 279.503C555.228 279.474 555.763 279.247 556.227 278.821C556.7 278.395 557.117 277.699 557.477 276.733L558.002 275.284L550.019 253.182H554.565L560.09 270.114H560.317L565.843 253.182H570.403L561.411 277.912C560.995 279.048 560.464 280.009 559.82 280.795C559.176 281.591 558.409 282.188 557.519 282.585C556.629 282.983 555.597 283.182 554.423 283.182Z" fill="white"/>
<path d="M807.2 228C807.2 290.544 762.271 347.329 689.278 388.524C616.309 429.704 515.45 455.2 404 455.2C292.55 455.2 191.691 429.704 118.722 388.524C45.7286 347.329 0.8 290.544 0.8 228C0.8 165.456 45.7286 108.671 118.722 67.4764C191.691 26.2959 292.55 0.8 404 0.8C515.45 0.8 616.309 26.2959 689.278 67.4764C762.271 108.671 807.2 165.456 807.2 228Z" stroke="white" stroke-width="1.6"/>
</svg>
