<svg width="60" height="50" viewBox="0 0 60 50" fill="none" xmlns="http://www.w3.org/2000/svg">
<rect width="60" height="49.28" rx="8" fill="#D3D5D7"/>
<path d="M25.6794 24.2589L25.6757 24.2523C25.5104 23.9571 25.4616 23.6535 25.5674 23.3589C25.6539 23.1184 25.829 22.9437 25.9242 22.8487C25.9277 22.8452 25.9311 22.8418 25.9344 22.8385C26.0378 22.7351 26.1531 22.5956 26.2817 22.4399C26.3507 22.3564 26.4235 22.2683 26.5003 22.1787C26.6344 22.0222 26.6907 21.9093 26.804 21.682C26.8122 21.6656 26.8207 21.6486 26.8295 21.6309C26.8526 21.5803 26.8531 21.5492 26.8507 21.5264C26.8475 21.4954 26.835 21.4521 26.8007 21.3837C26.6929 21.1679 25.8845 19.1936 25.5691 18.4052C25.5022 18.2453 25.4438 18.153 25.4019 18.1012C25.3629 18.0529 25.3402 18.0421 25.3375 18.0408L25.3374 18.0407L25.3374 18.0407C25.3343 18.0392 25.326 18.0352 25.295 18.0329C25.277 18.0316 25.2569 18.0311 25.2241 18.0307L25.2159 18.0306C25.1919 18.0303 25.1574 18.0299 25.1215 18.0281H24.368C24.213 18.0281 23.9408 18.0811 23.6833 18.359C23.6558 18.3902 23.6251 18.4238 23.592 18.4602C23.1931 18.8987 22.436 19.7311 22.436 21.3361C22.436 22.1994 22.7539 23.0774 23.1178 23.7936C23.4741 24.495 23.8531 25.0002 23.949 25.128L23.952 25.132L23.9563 25.1378L23.9605 25.1437C23.9696 25.1566 23.9832 25.1765 24.0014 25.203C24.393 25.7739 26.8687 29.3824 30.518 30.9569L30.5216 30.9585C31.441 31.3637 32.1567 31.5971 32.7221 31.7698L32.7292 31.772L32.7292 31.7721C33.5703 32.0429 34.3481 32.0041 35.0013 31.913C35.2909 31.8704 35.8099 31.6681 36.3056 31.3494C36.8145 31.0223 37.1682 30.6557 37.2712 30.357L37.2737 30.3498L37.2738 30.3498C37.4271 29.9265 37.5014 29.5417 37.5257 29.2523C37.5379 29.107 37.5367 28.9938 37.5296 28.9171C37.5287 28.9074 37.5277 28.8987 37.5268 28.8912C37.513 28.8823 37.4932 28.8704 37.465 28.8554C37.4167 28.8297 37.3572 28.8014 37.2765 28.7641C37.2607 28.7568 37.2442 28.7492 37.2271 28.7413C37.1599 28.7103 37.0826 28.6746 36.9996 28.6348C36.8921 28.5832 36.6875 28.4835 36.4368 28.3614C35.7133 28.0089 34.6051 27.469 34.3343 27.3557C34.2504 27.3267 34.1925 27.3085 34.1452 27.2978C34.1186 27.2919 34.1019 27.2899 34.0925 27.2892C34.0817 27.2983 34.059 27.32 34.0263 27.3657C33.7346 27.7932 32.9764 28.6954 32.7487 28.9561C32.5865 29.151 32.3648 29.3213 32.0595 29.3567C31.7778 29.3894 31.5127 29.2951 31.2813 29.1758C31.2312 29.152 31.1636 29.1231 31.0803 29.0874C30.5402 28.8561 29.3402 28.3422 27.9872 27.1332L25.6794 24.2589ZM25.6794 24.2589L25.6832 24.2653M25.6794 24.2589L25.6832 24.2653M25.6832 24.2653C25.9267 24.671 26.7427 26.0232 27.9868 27.1329L25.6832 24.2653ZM40.8447 14.0079L40.8464 14.0096C43.7444 16.9076 45.3399 20.7643 45.3399 24.872C45.3399 33.3319 38.4438 40.228 29.984 40.228C27.4123 40.228 24.8864 39.5773 22.6392 38.3529L22.4649 38.258L22.2729 38.3084L14.7099 40.2964L16.7224 32.9074L16.7769 32.7073L16.6738 32.5273C15.3407 30.2023 14.628 27.5679 14.628 24.856C14.628 16.3962 21.5241 9.50009 29.984 9.50009L29.9856 9.50008C32.0042 9.4934 34.0039 9.88853 35.8683 10.6625C37.7326 11.4364 39.4243 12.5736 40.8447 14.0079ZM23.0067 36.6288L23.0097 36.6305C25.1181 37.8757 27.5258 38.54 29.984 38.54C37.5222 38.54 43.6681 32.4139 43.6359 24.8718C43.6426 23.0737 43.2923 21.2921 42.6054 19.6304C41.9184 17.9684 40.9083 16.4593 39.6336 15.1907C37.0597 12.6007 33.6204 11.1721 29.968 11.1721C22.4278 11.1721 16.284 17.3159 16.284 24.856L16.284 24.8563C16.2855 27.429 17.0106 29.9493 18.3763 32.1295L18.3762 32.1295L18.3798 32.1351L18.5789 32.4436L17.3096 37.0923L17.0816 37.9277L17.9191 37.7076L22.7073 36.4491L23.0067 36.6288Z" fill="#171717" stroke="black"/>
</svg>
